<svg id="Слой_1" data-name="Слой 1" xmlns="http://www.w3.org/2000/svg" viewBox="0 0 567 530"><defs><style>.cls-1{fill:#eceff1;opacity:.3;}</style></defs><title>Монтажная область 1</title><path class="cls-1" d="M535.67,186.8,566.05,65.16H331.72C302.23,26.41,243.39,0,176.24,0,79,0,0,54.74,0,121.64V334.51c3.47,65.16,80.74,117.3,176.24,117.3,66.39,0,124.33-25.32,154.26-63.3l.28-.13L297.79,530,522.65,197.23,394.15,252.84l28.65-66ZM176.24,17.38c55.41,0,105,18.79,133.11,47.79H209.23l-25.18,117.3H296.92L295,190.11c-29.63,21.94-71.9,35.79-118.79,35.79C88.55,225.9,17.36,179,17.36,121.64S88.55,17.38,176.24,17.38ZM17.36,173.77c28.65,40.84,88.55,69.51,158.88,69.51,43.06,0,82-10.91,112.69-28.49l-14.44,58.4c-27.09,14.23-61,22.22-98.25,22.22-87.69,0-158.88-46.92-158.88-104.26Zm0,69.51c28.65,40.84,88.55,69.51,158.88,69.51,34.53,0,66.34-6.8,93.05-18.57l-14,56.73a226.15,226.15,0,0,1-79,14C88.55,364.92,17.36,318,17.36,260.66Zm0,86.89V312.79C46,353.62,105.92,382.3,176.24,382.3a242.11,242.11,0,0,0,74.05-11.22l-13.73,55.56a232.34,232.34,0,0,1-60.32,7.79C88.55,434.43,17.36,387.51,17.36,330.16Zm343.8-44.31,114.6-48.66L336,443.11l19.1-84.28-94.63,42.57,58.17-236.33H205.76L224,82.54H544.35l-21.7,86.89h-112Z"/></svg>