<svg xmlns="http://www.w3.org/2000/svg" width="48" height="48" viewBox="0 0 48 48">
  <path fill="#FAC732" fill-rule="evenodd" d="M123,2457.95312 L123,2461 L156,2461 L156,2464 L123,2464 C122.187496,2464 121.484378,2463.70313 120.890625,2463.10938 C120.296872,2462.51562 120,2461.8125 120,2461 L120,2456.5 C120,2455.65625 120.499995,2454.94532 121.5,2454.36719 L123,2453.5 L136.171875,2447.26562 C135.10937,2446.42187 134.218754,2445.41407 133.5,2444.24219 C132.781246,2443.07031 132.195315,2441.85938 131.742188,2440.60938 C131.28906,2439.35937 130.968751,2438.14844 130.78125,2436.97656 C130.593749,2435.80468 130.5,2434.8125 130.5,2434 L130.5,2426.5 C130.5,2425.24999 130.890621,2424.00001 131.671875,2422.75 C132.453129,2421.49999 133.484369,2420.375 134.765625,2419.375 C136.046881,2418.375 137.492179,2417.5625 139.101562,2416.9375 C140.710946,2416.3125 142.343742,2416 144,2416 C145.656258,2416 147.289054,2416.3125 148.898438,2416.9375 C150.507821,2417.5625 151.945306,2418.375 153.210938,2419.375 C154.476569,2420.375 155.507809,2421.49999 156.304688,2422.75 C157.101566,2424.00001 157.5,2425.24999 157.5,2426.5 L157.5,2434 C157.5,2434.90625 157.406251,2435.95312 157.21875,2437.14062 C157.031249,2438.32813 156.718752,2439.53906 156.28125,2440.77344 C155.843748,2442.00782 155.265629,2443.19531 154.546875,2444.33594 C153.828121,2445.47657 152.95313,2446.46875 151.921875,2447.3125 L155.90625,2449.14062 L155.15625,2452.14062 L150.65625,2450.03125 C150.187498,2449.8125 149.796877,2449.49219 149.484375,2449.07031 C149.171873,2448.64844 148.984375,2448.17188 148.921875,2447.64062 C148.890625,2447.10937 148.968749,2446.60938 149.15625,2446.14062 C149.343751,2445.67187 149.640623,2445.26563 150.046875,2444.92188 C151.671883,2443.67187 152.820309,2441.89845 153.492188,2439.60156 C154.164066,2437.30468 154.5,2435.43751 154.5,2434 L154.5,2426.5 C154.5,2425.6875 154.187503,2424.84375 153.5625,2423.96875 C152.937497,2423.09375 152.132817,2422.28907 151.148438,2421.55469 C150.164058,2420.82031 149.046881,2420.21094 147.796875,2419.72656 C146.546869,2419.24219 145.281256,2419 144,2419 C142.718744,2419 141.453131,2419.24219 140.203125,2419.72656 C138.953119,2420.21094 137.82813,2420.82812 136.828125,2421.57812 C135.82812,2422.32813 135.023441,2423.14062 134.414062,2424.01562 C133.804684,2424.89063 133.5,2425.71875 133.5,2426.5 L133.5,2434 C133.5,2435.46876 133.867184,2437.34374 134.601562,2439.625 C135.335941,2441.90626 136.484367,2443.67187 138.046875,2444.92188 C138.453127,2445.23438 138.757811,2445.63281 138.960938,2446.11719 C139.164064,2446.60156 139.234375,2447.10937 139.171875,2447.64062 C139.109375,2448.14063 138.921877,2448.60156 138.609375,2449.02344 C138.296873,2449.44531 137.906252,2449.76562 137.4375,2449.98438 L124.265625,2456.21875 C124.078124,2456.28125 123.820314,2456.4375 123.492188,2456.6875 C123.164061,2456.9375 123,2457.35937 123,2457.95312 Z M166.5,2455 C166.906252,2455 167.257811,2455.14844 167.554688,2455.44531 C167.851564,2455.74219 168,2456.09375 168,2456.5 C168,2456.90625 167.851564,2457.25781 167.554688,2457.55469 C167.257811,2457.85156 166.906252,2458 166.5,2458 L162,2458 L162,2462.5 C162,2462.90625 161.851564,2463.25781 161.554688,2463.55469 C161.257811,2463.85156 160.906252,2464 160.5,2464 C160.093748,2464 159.742189,2463.85156 159.445312,2463.55469 C159.148436,2463.25781 159,2462.90625 159,2462.5 L159,2458 L154.5,2458 C154.093748,2458 153.742189,2457.85156 153.445312,2457.55469 C153.148436,2457.25781 153,2456.90625 153,2456.5 C153,2456.09375 153.148436,2455.74219 153.445312,2455.44531 C153.742189,2455.14844 154.093748,2455 154.5,2455 L159,2455 L159,2453 L159,2450.5 C159,2450.09375 159.148436,2449.74219 159.445312,2449.44531 C159.742189,2449.14844 160.093748,2449 160.5,2449 C160.906252,2449 161.257811,2449.14844 161.554688,2449.44531 C161.851564,2449.74219 162,2450.09375 162,2450.5 L162,2453 L162,2455 L166.5,2455 Z" transform="translate(-120 -2416)"/>
</svg>
