<svg xmlns="http://www.w3.org/2000/svg" width="36" height="37" viewBox="0 0 36 37">
  <path fill="#546E7A" fill-rule="evenodd" d="M26.2265625,29.6054688 L27.1757812,30.1328125 C27.8085969,30.4843768 28.125,30.9414034 28.125,31.5039062 L28.125,34.3515625 C28.125,34.8906277 27.9375019,35.3417951 27.5625,35.7050781 C27.1874981,36.0683612 26.7421901,36.25 26.2265625,36.25 L14,36.25 L1.8984375,36.25 C1.38280992,36.25 0.937501875,36.0683612 0.5625,35.7050781 C0.187498125,35.3417951 0,34.8906277 0,34.3515625 L0,31.5039062 C0,30.9882787 0.316403086,30.5429706 0.94921875,30.1679688 L1.8984375,29.6054688 L9.17578125,25.6679688 C7.83983707,24.613276 6.91406508,23.20704 6.3984375,21.4492188 C5.88280992,19.6913975 5.625,18.2968802 5.625,17.265625 L5.625,12.5195312 C5.625,11.7226523 5.87109129,10.9316446 6.36328125,10.1464844 C6.85547121,9.3613242 7.49999602,8.65234691 8.296875,8.01953125 C9.09375398,7.38671559 10.001948,6.87109574 11.0214844,6.47265625 C12.0410207,6.07421676 13.0664011,5.875 14.0976562,5.875 C15.152349,5.875 16.1835887,6.07421676 17.1914062,6.47265625 C18.1992238,6.87109574 19.0956992,7.38671559 19.8808594,8.01953125 C20.6660196,8.65234691 21.2988257,9.3613242 21.7792969,10.1464844 C22.259768,10.9316446 22.5,11.7226523 22.5,12.5195312 L22.5,17.265625 C22.5,18.4140682 22.2714867,19.8437414 21.8144531,21.5546875 C21.3574196,23.2656336 20.4726628,24.6484322 19.1601562,25.703125 L26.2265625,29.6054688 Z M25.875,34 L25.875,31.9960938 C25.8046871,31.9257809 25.7226567,31.8671877 25.6289062,31.8203125 L25.3476562,31.6796875 C25.3242186,31.6796875 25.2949221,31.6679689 25.2597656,31.6445312 C25.2246092,31.6210936 25.183594,31.5976564 25.1367188,31.5742188 L18.0703125,27.671875 C17.7421859,27.4843741 17.4726573,27.2324235 17.2617188,26.9160156 C17.0507802,26.5996078 16.9335939,26.2539081 16.9101562,25.8789062 C16.863281,25.5039044 16.9160149,25.1406268 17.0683594,24.7890625 C17.2207039,24.4374982 17.4492172,24.1445324 17.7539062,23.9101562 C18.7148486,23.1601525 19.371092,22.0878976 19.7226562,20.6933594 C20.0742205,19.2988212 20.25,18.1562545 20.25,17.265625 L20.25,12.5195312 C20.25,11.6992146 19.6347718,10.761724 18.4042969,9.70703125 C17.173822,8.65233848 15.7382895,8.125 14.0976562,8.125 C12.5038983,8.125 11.0683658,8.65233848 9.79101562,9.70703125 C8.51366549,10.761724 7.875,11.6992146 7.875,12.5195312 L7.875,17.265625 C7.875,18.1562545 8.08593539,19.2988212 8.5078125,20.6933594 C8.92968961,22.0878976 9.62108895,23.1601525 10.5820312,23.9101562 C10.8632827,24.1445324 11.0800774,24.4374982 11.2324219,24.7890625 C11.3847664,25.1406268 11.4375002,25.5039044 11.390625,25.8789062 C11.3671874,26.2539081 11.2500011,26.5996078 11.0390625,26.9160156 C10.8281239,27.2324235 10.5585954,27.4726554 10.2304688,27.6367188 L2.953125,31.609375 C2.92968738,31.609375 2.90625012,31.6152343 2.8828125,31.6269531 C2.85937488,31.6386719 2.83593762,31.6562499 2.8125,31.6796875 C2.71874953,31.7031251 2.61914115,31.7499996 2.51367188,31.8203125 L2.25,31.9960938 L2.25,34 L25.875,34 Z M34.1015625,24.015625 L35.0507812,24.5429688 C35.6835969,24.894533 36,25.3515597 36,25.9140625 L36,28.7265625 C36,29.2656277 35.8125019,29.7167951 35.4375,30.0800781 C35.0624981,30.4433612 34.6171901,30.625 34.1015625,30.625 L30.375,30.625 C30.2343743,30.13281 30.0878914,29.6992206 29.9355469,29.3242188 C29.7832024,28.9492169 29.5429704,28.6328138 29.2148438,28.375 L33.75,28.375 L33.75,26.3710938 C33.6796871,26.3242185 33.5976567,26.2714847 33.5039062,26.2128906 C33.4101558,26.1542966 33.3164067,26.1132814 33.2226562,26.0898438 C33.1992186,26.0664061 33.1699221,26.0488282 33.1347656,26.0371094 C33.0996092,26.0253906 33.058594,26.0078126 33.0117188,25.984375 L25.8398438,22.0820312 C25.5117171,21.8945303 25.2421886,21.6425797 25.03125,21.3261719 C24.8203114,21.009764 24.7031251,20.6640644 24.6796875,20.2890625 C24.6328123,19.9140606 24.6855461,19.550783 24.8378906,19.1992188 C24.9902351,18.8476545 25.2187485,18.5546887 25.5234375,18.3203125 C26.4843798,17.5468711 27.1582012,16.4628976 27.5449219,15.0683594 C27.9316426,13.6738212 28.125,12.5429731 28.125,11.6757812 L28.125,6.9296875 C28.125,6.08593328 27.4921938,5.13672402 26.2265625,4.08203125 C24.9609312,3.02733848 23.5078207,2.5 21.8671875,2.5 C21.0703085,2.5 20.3027381,2.62890496 19.5644531,2.88671875 C18.8261682,3.14453254 18.1640654,3.49609152 17.578125,3.94140625 C17.1328103,3.80078055 16.664065,3.71875012 16.171875,3.6953125 C15.679685,3.67187488 15.1992211,3.64843762 14.7304688,3.625 C15.5507854,2.6640577 16.6054623,1.85547203 17.8945312,1.19921875 C19.1836002,0.542965469 20.5078057,0.21484375 21.8671875,0.21484375 C22.9218803,0.21484375 23.9589793,0.419919824 24.9785156,0.830078125 C25.998052,1.24023643 26.906246,1.76171559 27.703125,2.39453125 C28.500004,3.02734691 29.1445288,3.74218352 29.6367188,4.5390625 C30.1289087,5.33594148 30.375,6.13280852 30.375,6.9296875 L30.375,11.6757812 C30.375,12.8007869 30.1289087,14.2246008 29.6367188,15.9472656 C29.1445288,17.6699305 28.2421941,19.0468698 26.9296875,20.078125 L34.1015625,24.015625 Z"/>
</svg>
